<svg id="Capa_1" enable-background="new 0 0 512 512" height="512" viewBox="0 0 512 512" width="512" xmlns="http://www.w3.org/2000/svg"><g><g><path d="m256 418.412-256-32.363v-318.165h208.317c26.334 0 47.683 21.348 47.683 47.683l19.974 166.569z" fill="#f7fcff"/><path d="m256 422.842 256-36.793v-318.165h-208.317c-26.334 0-47.683 21.348-47.683 47.683z" fill="#e0e6f5"/></g><g><path d="m58.473 188.613h137.107v30h-137.107z" fill="#ecf3fb"/></g><g><path d="m88.475 129.122h107.105v30h-107.105z" fill="#ecf3fb"/></g><g><path d="m58.473 247.302h137.107v30h-137.107z" fill="#ecf3fb"/></g><g><path d="m58.473 307.306h137.107v30h-137.107z" fill="#ecf3fb"/></g><g><path d="m301.241 151.468h156.306v30h-156.306z" fill="#d9d6ec"/></g><g><path d="m301.241 210.157h156.306v30h-156.306z" fill="#d9d6ec"/></g><g><path d="m301.241 270.161h156.306v30h-156.306z" fill="#d9d6ec"/></g><g><path d="m323.97 352.386 21.697-42.108-21.698-42.102 21.698-42.103-21.698-42.102 21.698-42.1-21.698-42.095 16.436-31.891h-36.723c-26.334 0-47.683 21.348-47.683 47.683v307.275l93.509-20.894z" fill="#ecf3fb"/></g><g><path d="m256 444.116h-256v-58.067h223.407c18 0 32.593 14.592 32.593 32.593l9.057 15.076z" fill="#89ce6d"/><path d="m256 444.116h256v-58.067h-223.407c-18 0-32.593 14.592-32.593 32.593z" fill="#5eb16a"/></g></g></svg>