<svg id="Capa_1" enable-background="new 0 0 512 512" height="512" viewBox="0 0 512 512" width="512" xmlns="http://www.w3.org/2000/svg"><g><g><g><path d="m256 350.528-256-32.364v-318.164h208.317c26.335 0 47.683 21.348 47.683 47.683l19.974 166.569z" fill="#f7fcff"/><path d="m256 354.958 256-36.793v-318.165h-208.317c-26.335 0-47.683 21.348-47.683 47.683z" fill="#ecf3fb"/><g><g><g><g><path d="m318.95 125.563h137.106v30h-137.106z" fill="#e0e6f5"/></g><g><path d="m318.95 66.071h137.106v30h-137.106z" fill="#e0e6f5"/></g><g><path d="m318.95 184.252h137.106v30h-137.106z" fill="#e0e6f5"/></g></g></g><g><path d="m195.63 209.358h-137.206v-143.188h137.206z" fill="#ecf3fb"/></g></g><g><path d="m270.659 376.231h-270.659v-58.067h223.407c18 0 38.202 15.161 38.202 33.161z" fill="#fd465f"/></g></g></g><g><path d="m58.313 241.665h137.107v30h-137.107z" fill="#ecf3fb"/></g><g><path d="m341.506 512h133.577l-39.494-184.565s-77.262-41.951-69.831-27.271l-7.37-14.559c-7.431-14.681-25.356-20.557-40.036-13.126-14.68 7.431-20.557 25.356-13.126 40.036l-59.602-120.138c-7.431-14.681-25.356-20.557-40.036-13.126s-20.557 25.356-13.126 40.036l75.295 151.139c-11.757 47.615 45.907 122.948 73.749 141.574z" fill="#fb9"/><path d="m475.083 512h36.917v-188.928l-31.168-59.439c-7.431-14.68-25.356-20.557-40.036-13.126s-20.557 25.356-13.126 40.036l-8.751-17.289c-7.431-14.68-25.356-20.557-40.036-13.126s-20.557 25.356-13.126 40.036z" fill="#f5a488"/><g><path d="m341.506 512-73.75-141.573c-22.694 13.861-31.321 43.148-19.108 67.275l37.817 74.298z" fill="#ffd9b3"/></g></g></g></svg>