<svg id="Capa_1" enable-background="new 0 0 512 512" height="512" viewBox="0 0 512 512" width="512" xmlns="http://www.w3.org/2000/svg"><g><path d="m211.322 91.434c-24.222 8.919-46.018 25.233-61.375 45.939-15.97 21.533-24.411 46.362-24.411 71.804v112.213l130.464.615 18.91-78.959-18.91-151.732z" fill="#ca7a33"/><path d="m387.171 214.318c0-54.99-34.799-104.47-86.593-123.124l-44.578.12v230.692l131.14.619c.019-.829.027-59.355.031-108.307z" fill="#b1532b"/><g><path d="m230.477 264.034c-81.481 0-147.771 66.29-147.771 147.771l173.294 41.581 26.762-106.34-26.762-83.012z" fill="#fb9"/><path d="m281.523 264.034h-25.523v189.352l173.295-41.581c0-81.481-66.29-147.771-147.772-147.771z" fill="#f5a488"/></g><g><g><g><path d="m139.834 403.038v8.768l116.166 44.348 18.91-65.775-18.91-45.435c-12.463-9.35-27.707-14.524-43.549-14.524-40.041 0-72.617 32.576-72.617 72.618z" fill="#89ce6d"/></g><g><path d="m241 142.301c0 16.37-13.27 29.64-29.64 29.64h-35.67v40.1c0 44.214 35.306 80.902 79.518 81.33.265.003.527-.013.791-.013l18.91-70.311-18.909-80.746z" fill="#ffd9b3"/><path d="m300.64 171.941c-16.37 0-29.64-13.27-29.64-29.64h-15v151.057c44.281-.002 80.31-36.012 80.31-80.294v-41.123z" fill="#fb9"/><path d="m235.318 16.439-38.42-16.439 13.335 91.84h45.767l9.057-38.125-9.057-53.618z" fill="#fdd752"/><path d="m315.102 0-38.37 16.417-20.732-16.32v91.743h46.334z" fill="#f8bd3f"/></g></g></g><path d="m372.166 411.805v-8.768c0-40.042-32.576-72.618-72.617-72.618-15.842 0-31.086 5.174-43.549 14.524v111.21z" fill="#5eb16a"/><g><g><path d="m211 396.683h-211c6.939 7.383 11.38 17.314 11.38 28.245 0 11.025-4.333 21.058-11.38 28.458l6.137 2.984h185.689l1.71 41.741h74.694l-12.23-56.428c0-24.853-20.147-45-45-45z" fill="#fff7e7"/></g><g><path d="m301 396.683h211c-6.939 7.383-11.38 17.314-11.38 28.245 0 11.025 4.333 21.058 11.38 28.458l-6.137 2.984h-185.689l-1.71 41.741h-62.464v-56.428c0-24.853 20.147-45 45-45z" fill="#ffe6ce"/></g><g><path d="m213.124 482v-28.614h-213.124v30h183.124v28.614h72.876l13.406-13.889-13.406-16.111z" fill="#fd465f"/><path d="m298.236 453.386v28.614h-42.236v30h72.236v-28.614h183.764v-30z" fill="#ce0c51"/></g></g></g></svg>