<svg id="Capa_1" enable-background="new 0 0 512 512" height="512" viewBox="0 0 512 512" width="512" xmlns="http://www.w3.org/2000/svg"><g><g><path d="m55.056 0v512h200.944l28.729-266.584-28.729-245.416z" fill="#585f64"/><path d="m256 0h200.944v512h-200.944z" fill="#474f54"/></g><g><path d="m113.056 58v343.039h142.944l19.974-167.621-19.974-175.418z" fill="#f7fcff"/><path d="m398.944 58h-36.344l-32.931 13.41-36.368-13.41h-37.301v343.039h142.944z" fill="#ecf3fb"/></g><g><path d="m293.301 208.32v-150.32h69.299v149.696l-35.164-21.574z" fill="#fd465f"/></g><g><path d="m113.056 401.039v52.961h142.944l12.989-13.491-12.989-39.47z" fill="#474f54"/><path d="m256 401.039h142.944v52.961h-142.944z" fill="#31383e"/><g fill="#ecf3fb"><path d="m177.843 272.182v30h78.157l12.989-15-12.989-15z"/><path d="m177.843 330.871v30h78.157l14.659-14.869-14.659-15.131z"/></g></g><g fill="#e0e6f5"><path d="m256 272.182h78.157v30h-78.157z"/><path d="m256 330.871h78.157v30h-78.157z"/></g></g></svg>