<svg id="Capa_1" enable-background="new 0 0 512 512" height="512" viewBox="0 0 512 512" width="512" xmlns="http://www.w3.org/2000/svg"><g><g><path d="m162.825 75.622c-30.365 0-55.497 22.828-59.136 52.224-2.612-.17-5.25-.175-7.912-.016-14.519.87-28.362 6.92-38.981 17.036-10.615 10.111-17.332 23.642-18.915 38.101-.193 1.766-.311 3.531-.354 5.293-21.281 3.644-37.527 22.224-37.527 44.528 0 24.91 20.265 45.175 45.175 45.175h118.108l34.839-101.164-34.839-101.165c-.153-.001-.305-.012-.458-.012z" fill="#f7fcff"/><path d="m222.339 132.217c-1.558-31.319-27.412-56.342-59.056-56.583v202.329h57.119c40.189 0 72.886-32.697 72.886-72.886 0-39.542-31.651-71.83-70.949-72.86z" fill="#ecf3fb"/></g><g><path d="m381.537 0c-30.365 0-55.497 22.828-59.136 52.224-2.612-.17-5.25-.175-7.912-.016-14.519.87-28.362 6.92-38.981 17.036-10.615 10.111-17.332 23.642-18.915 38.101-.193 1.766-.311 3.531-.354 5.293-21.281 3.644-37.527 22.224-37.527 44.528 0 24.91 20.265 45.175 45.175 45.175h118.108l34.839-101.164-34.839-101.166c-.153-.001-.304-.011-.458-.011z" fill="#f7fcff"/><path d="m441.051 56.594c-1.558-31.319-27.412-56.342-59.056-56.583v202.329h57.119c40.189 0 72.886-32.697 72.886-72.886 0-39.541-31.651-71.83-70.949-72.86z" fill="#ecf3fb"/></g><g><path d="m362.037 341.464v-25.581h19.958l9.485-13.701-9.485-16.223h-19.958v-25.581h19.958l10.806-16.541-10.806-13.383h-19.958v-28.114h19.958l13.448-13.662-13.448-16.262h-19.958v-24.674h-29.924v262.231h29.924v-38.585h19.958l13.448-13.906-13.448-16.018z" fill="#ca7a33"/></g><path d="m401.954 147.742v24.674h-19.959v29.924h19.959v28.114h-19.959v29.924h19.959v25.581h-19.959v29.924h19.959v25.581h-19.959v29.924h19.959v38.585h29.924v-262.231z" fill="#b1532b"/><g><g><path d="m211 396.683h-211c6.939 7.383 11.38 17.314 11.38 28.245 0 11.025-4.333 21.058-11.38 28.458l6.137 2.984h185.689l1.71 41.741h74.694l-12.23-56.428c0-24.853-20.147-45-45-45z" fill="#fff7e7"/></g><g><path d="m301 396.683h211c-6.939 7.383-11.38 17.314-11.38 28.245 0 11.025 4.333 21.058 11.38 28.458l-6.137 2.984h-185.689l-1.71 41.741h-62.464v-56.428c0-24.853 20.147-45 45-45z" fill="#ffe6ce"/></g><g><path d="m213.124 482v-28.614h-213.124v30h183.124v28.614h72.876l13.406-13.889-13.406-16.111z" fill="#6ae1db"/><path d="m298.236 453.386v28.614h-42.236v30h72.236v-28.614h183.764v-30z" fill="#21c8c7"/></g></g></g></svg>