<svg id="Capa_1" enable-background="new 0 0 512 512" height="512" viewBox="0 0 512 512" width="512" xmlns="http://www.w3.org/2000/svg"><g><g><path d="m179.978 65.151 76.026 26.236 12.247-45.694-12.247-45.693z" fill="#fd465f"/><path d="m333.431 65.151-77.427-65.151v91.387l.704.243z" fill="#ce0c51"/></g><g><path d="m179.978 65.151-.001 123.527h76.023l15.293-73.618-15.293-49.909z" fill="#ecf3fb"/><path d="m256 65.151h77.431v123.527h-77.431z" fill="#e0e6f5"/></g><g><path d="m391.283 143.807h-30.088v29.827h-27.764l-.001 202.695h57.853z" fill="#ecf3fb"/><path d="m150.815 173.634v-29.827h-30.088v232.522h59.25l.001-202.695z" fill="#ecf3fb"/><g><path d="m241.458 143.881v29.753h-31.47v-29.734h-30.01v29.734l-.001 202.695h76.023l11.265-101.431-11.265-131.017z" fill="#e0e6f5"/><path d="m303.387 173.634h-31.842v-29.753h-15.545v232.448h77.43l.001-202.695v-29.827h-30.044z" fill="#d9d6ec"/></g></g><path d="m120.727 198.371v30.422h-29.958v-30.422h-30.088v30.422h-30.593v-30.422h-30.088v110.175l28.936 20.059v183.395h92.567v-183.337l29.312-20.06v-110.232z" fill="#e0e6f5"/><g><path d="m241.205 376.531h14.795l7.646-35.203-7.646-35.203h-14.795z" fill="#ecf3fb"/><path d="m256 306.125h15.293v70.406h-15.293z" fill="#e0e6f5"/><path d="m241.205 218.926v33.732h14.795l7.903-16.866-7.903-16.866z" fill="#ecf3fb"/><path d="m256 218.926h15.293v33.732h-15.293z" fill="#e0e6f5"/></g><g><path d="m120.727 376.329v135.671h98.282l33.277-13.889 14.979 1.267-11.265-123.049z" fill="#f7fcff"/><path d="m256 376.329v123.049l36.991 12.622h98.292v-135.671z" fill="#ecf3fb"/></g><g><path d="m256 408.954c-20.429 0-36.991 16.561-36.991 36.991v66.055h36.991l11.265-45.628z" fill="#ca7a33"/><path d="m292.991 445.945c0-20.429-16.561-36.991-36.991-36.991v103.046h36.991z" fill="#b1532b"/></g><path d="m481.912 198.371v30.422h-29.958v-30.422h-30.087v30.422h-30.594v-30.422h-30.088v110.175l28.936 20.059v183.395h92.568v-183.337l29.311-20.06v-110.232z" fill="#d9d6ec"/></g></svg>