<svg id="Capa_1" enable-background="new 0 0 512 512" height="512" viewBox="0 0 512 512" width="512" xmlns="http://www.w3.org/2000/svg"><g><g><g><path d="m370.413 162.746c-41.477 0-82.404-6.812-121.645-20.248l-19.94-6.827v204.722c-.026 42.895 21.778 83.203 56.835 105.152 25.469 16.14 84.751 51.167 84.751 51.167l12.461-162.407-12.462-171.559c.001 0 .001 0 0 0z" fill="#89ce6d"/></g><path d="m492.06 142.498c-39.241 13.435-80.168 20.248-121.646 20.248v333.966c.021-.012 59.263-35.015 84.733-51.155 35.095-22 56.88-62.291 56.853-105.155v-204.731z" fill="#5eb16a"/><g><g><path d="m303.023 225.81h30.125v30.124h-30.125z" fill="#5eb16a"/></g><g><path d="m406.493 225.81h30.125v30.124h-30.125z" fill="#009b5c"/></g></g><g><path d="m370.413 336.3c-21.036 0-38.151 17.115-38.151 38.152v24.032h-30.124v-24.032c0-37.647 30.629-68.275 68.275-68.275l8.498 16.441-8.498 13.682c.001 0 .001 0 0 0z" fill="#5eb16a"/><path d="m408.565 398.483v-24.032c0-21.037-17.115-38.151-38.151-38.152v-30.124c37.646 0 68.275 30.628 68.275 68.275v24.032h-30.124z" fill="#009b5c"/></g></g><g><g><path d="m141.585 42.362c-41.477 0-82.404-6.812-121.645-20.248l-19.94-6.827v204.723c-.026 42.895 21.778 83.204 56.835 105.152 25.469 16.14 84.751 51.167 84.751 51.167l12.461-162.407-12.462-171.56c.001 0 .001 0 0 0z" fill="#fdd752"/></g><path d="m263.232 22.115c-39.241 13.435-80.168 20.248-121.646 20.248v333.966c.021-.012 59.263-35.015 84.733-51.155 35.095-22 56.88-62.291 56.853-105.155v-204.732z" fill="#f8bd3f"/><g><g><path d="m74.195 105.426h30.125v30.124h-30.125z" fill="#f8bd3f"/></g><g><path d="m177.665 105.426h30.125v30.124h-30.125z" fill="#fd9326"/></g></g><g><path d="m141.585 238.976c-21.036 0-38.151-17.115-38.151-38.152v-24.032h-30.124v24.032c0 37.647 30.629 68.275 68.275 68.275l8.498-16.441-8.498-13.682c.001 0 .001 0 0 0z" fill="#f8bd3f"/><path d="m179.737 176.793v24.032c0 21.037-17.115 38.151-38.151 38.152v30.124c37.646 0 68.275-30.628 68.275-68.275v-24.032h-30.124z" fill="#fd9326"/></g></g></g></svg>