<svg id="Capa_1" enable-background="new 0 0 512 512" height="512" viewBox="0 0 512 512" width="512" xmlns="http://www.w3.org/2000/svg"><g><g><path d="m211 396.683h-211c6.939 7.383 11.38 17.314 11.38 28.245 0 11.025-4.333 21.058-11.38 28.458l6.137 2.984h185.689l1.71 41.741h74.694l-12.23-56.428c0-24.853-20.147-45-45-45z" fill="#fff7e7"/></g><g><path d="m301 396.683h211c-6.939 7.383-11.38 17.314-11.38 28.245 0 11.025 4.333 21.058 11.38 28.458l-6.137 2.984h-185.689l-1.71 41.741h-62.464v-56.428c0-24.853 20.147-45 45-45z" fill="#ffe6ce"/></g><g><path d="m60.004 200.793v152.055h71.437l15-6.764 15 6.764h94.559l24.765-63.045-24.765-129.913z" fill="#b1532b"/><path d="m451.996 200.793-195.996-40.903v192.958h94.559l15-8.227 15 8.227h71.437z" fill="#983424"/></g><g><path d="m213.714 190.793v41.964c0 23.316 18.969 42.286 42.286 42.286l13.406-42.125-13.406-42.125z" fill="#fdd752"/><path d="m256 190.793v84.25c23.316 0 42.286-18.969 42.286-42.286v-41.964z" fill="#f8bd3f"/></g><g><path d="m122.677 113.665c-34.558 0-62.673 28.37-62.673 62.928v24.2h195.996l21.143-40.904-21.143-46.224h-94.559l-14.001 6.541-15.999-6.541z" fill="#ca7a33"/><path d="m451.996 176.594c0-34.559-28.115-62.928-62.673-62.928h-8.764l-15 8.993-15-8.993h-94.559v87.128h195.996z" fill="#b1532b"/></g><g><path d="m131.441 113.665v87.128l18.536 14.387 11.464-14.387v-87.128z" fill="#585f64"/><path d="m131.441 200.793h30v152.055h-30z" fill="#474f54"/><path d="m380.559 113.665h-30v87.128l15 17.535 15-17.535z" fill="#474f54"/><path d="m350.559 200.793h30v152.055h-30z" fill="#31383e"/></g><g fill="#ecf3fb"><path d="m423.467 0h28.535v28.512h-28.535z"/><path d="m394.909 28.512h28.558v28.512h-28.558z"/><path d="m452.002 28.512h28.512v28.512h-28.512z"/><path d="m423.467 57.023h28.535v28.512h-28.535z"/><path d="m483.465 99.282h28.535v28.512h-28.535z"/></g><g><path d="m213.124 482v-28.614h-213.124v30h183.124v28.614h72.876l13.406-13.889-13.406-16.111z" fill="#fd465f"/><path d="m298.236 453.386v28.614h-42.236v30h72.236v-28.614h183.764v-30z" fill="#ce0c51"/></g></g></svg>