<svg id="Capa_1" enable-background="new 0 0 512 512" height="512" viewBox="0 0 512 512" width="512" xmlns="http://www.w3.org/2000/svg"><g><g><path d="m0 0v415.28l169.413 28.786 24.449-250.841-24.449-193.225z" fill="#ecf3fb"/><path d="m169.413 0v444.066l.582.099 168.83-28.885v-415.28z" fill="#e0e6f5"/></g><g><path d="m114.699 64.904c-25.281 0-45.775 20.494-45.775 45.775v178.705l47.654-7.932 17.537-93.732-17.537-122.816z" fill="#6ae1db"/></g><g><path d="m116.578 64.904v216.549l52.835-8.794 22.37-95.866-22.37-111.889z" fill="#21c8c7"/></g><g><path d="m0 415.28v96.72h169.413l24.449-48.36-24.449-48.36z" fill="#585f64"/></g><path d="m169.413 415.28h169.413v96.72h-169.413z" fill="#474f54"/><g><path d="m154.357 448.64v30.112h15.056l5.482-9.573-5.482-20.539z" fill="#474f54"/></g><path d="m169.413 448.64h15.056v30.112h-15.056z" fill="#31383e"/><path d="m269.901 64.904h-100.488v207.755l100.488-16.725z" fill="#17a0a9"/><g><path d="m102.375 255.934c-18.474 0-33.451 14.976-33.451 33.451 0 18.474 14.976 33.451 33.451 33.451h67.038l21.147-33.451-21.147-33.451z" fill="#fff7e7"/><path d="m169.413 255.934h100.489v66.902h-100.489z" fill="#ffe6ce"/></g><g><g><path d="m242.523.001v166.445h134.905l18.261-78.91-18.261-87.535z" fill="#fdd752"/><path d="m377.428.001v166.445h56.524v73.628l78.048-81.812v-158.261z" fill="#f8bd3f"/></g><g><g><path d="m301.763 66.63h31.323v30h-31.323z" fill="#fd465f"/></g><g><path d="m361.767 66.63v30h15.661l6.572-15-6.572-15z" fill="#fd465f"/><path d="m377.428 66.63h15.661v30h-15.661z" fill="#ce0c51"/></g><g><path d="m421.771 66.63h31.322v30h-31.322z" fill="#ce0c51"/></g></g></g></g></svg>