<svg id="Capa_1" enable-background="new 0 0 512.083 512.083" height="512" viewBox="0 0 512.083 512.083" width="512" xmlns="http://www.w3.org/2000/svg"><g><g><path d="m54.069.003c-29.862 0-54.069 24.207-54.069 54.068v403.863c0 29.861 24.207 54.069 54.069 54.069h16.43l85.794-64.427 28.821-187.912-38.702-211.012-79.773-48.649z" fill="#f7fcff"/><path d="m156.065 97.749h140.242v316.508h-140.242z" fill="#ecf3fb"/></g><g fill="#e0e6f5"><path d="m92.963 154.551v30.059h63.102l10.29-15.03-10.29-15.029z"/><path d="m92.963 244.731h63.102l13.827-15.029-13.827-15.03h-63.102z"/><path d="m92.963 304.852h63.102l10.29-15.029-10.29-15.029h-63.102z"/><path d="m92.963 364.973h63.102l13.827-15.029-13.827-15.03h-63.102z"/></g><g><path d="m489.297 69.982c-23.978-.852-50.338 4.758-76.241 16.212-23.966 10.598-46.76 26.03-64.157 43.427l-86.819 86.398v103.244h1.387l137.518-104.591 110.992-143.918z" fill="#fdd752"/><path d="m512 70.755-.023-.001-248.509 248.509h103.551l85.233-86.239c17.423-17.423 32.855-40.216 43.453-64.182 11.453-25.903 17.143-52.267 16.295-76.242z" fill="#f8bd3f"/></g><g><path d="m347.986 232.836v-102.771l-30.059 29.912v102.918h1.443l23.487-10.623 6.572-19.436z" fill="#f8bd3f"/><path d="m319.37 262.895h102.898l29.708-30.059h-102.547z" fill="#fd9326"/></g><g><path d="m397.726 162.157-207.1 205.275 12.05 12.157 113.66-101.789 92.531-104.402z" fill="#ca7a33"/><path d="m202.676 379.589 9.11 9.192 207.1-205.275-10.019-10.108z" fill="#b1532b"/></g><g><path d="m315.183.08h-126.83v103.901h126.83c28.691 0 51.951-23.259 51.951-51.951-.001-28.691-23.26-51.95-51.951-51.95z" fill="#d9d6ec"/><path d="m185.175.08h-132.778v.035c28.046.74 50.559 23.691 50.559 51.915 0 28.225-22.513 51.176-50.559 51.915v.035h132.778c28.691 0 51.951-23.259 51.951-51.951-.001-28.69-23.26-51.949-51.951-51.949z" fill="#e0e6f5"/></g><g><path d="m315.183 408.179h-126.83v103.901h126.83c28.691 0 51.951-23.259 51.951-51.951-.001-28.691-23.26-51.95-51.951-51.95z" fill="#d9d6ec"/><path d="m185.175 408.179h-132.778v.035c28.046.74 50.559 23.691 50.559 51.915 0 28.225-22.513 51.176-50.559 51.915v.035h132.778c28.691 0 51.951-23.259 51.951-51.951-.001-28.69-23.26-51.949-51.951-51.949z" fill="#e0e6f5"/></g><g fill="#d9d6ec"><path d="m156.065 154.551h63.102v30.059h-63.102z"/><path d="m156.065 214.672h63.102v30.059h-63.102z"/><path d="m156.065 274.794h63.102v30.059h-63.102z"/><path d="m156.065 334.914h29.049v30.059h-29.049z"/></g></g></svg>