<svg id="Capa_1" enable-background="new 0 0 512 512" height="512" viewBox="0 0 512 512" width="512" xmlns="http://www.w3.org/2000/svg"><g><g><path d="m242.621 351.411h-60.219c-33.989 0-61.641-27.625-61.641-61.58v-12.111h60.219c33.989 0 61.641 27.625 61.641 61.58z" fill="#89ce6d"/></g><g><path d="m241 225.877v234.172h15l7.5-120.664-7.5-113.508z" fill="#5eb16a"/><path d="m256 225.877h15v234.172h-15z" fill="#009b5c"/></g><g><path d="m211 396.683h-211c6.939 7.383 11.38 17.314 11.38 28.245 0 11.025-4.333 21.058-11.38 28.458l6.137 2.984h185.689l1.71 41.741h74.694l-12.23-56.428c0-24.853-20.147-45-45-45z" fill="#f7fcff"/><path d="m301 396.683h211c-6.939 7.383-11.38 17.314-11.38 28.245 0 11.025 4.333 21.058 11.38 28.458l-6.137 2.984h-185.689l-1.71 41.741h-62.464v-56.428c0-24.853 20.147-45 45-45z" fill="#ecf3fb"/><path d="m213.124 482v-28.614h-213.124v30h183.124v28.614h72.876l13.406-13.889-13.406-16.111z" fill="#6ae1db"/><path d="m298.236 453.386v28.614h-42.236v30h72.236v-28.614h183.764v-30z" fill="#21c8c7"/></g><path d="m145.628 73.62v76.809c0 49.865 38.558 90.433 85.952 90.433h24.42l21.865-44.463-21.865-122.779z" fill="#fd465f"/><path d="m256 73.62v167.242h25.767c47.394 0 85.952-40.568 85.952-90.433v-76.809z" fill="#e72d5a"/><path d="m294.25 0h-31.457l-33.478 150.441h64.935c40.527 0 73.499-32.939 73.499-73.426v-3.589c-.001-40.487-32.972-73.426-73.499-73.426z" fill="#fd6c5f"/><path d="m235.133 0h-16.308c-40.527 0-73.499 32.939-73.499 73.426v3.589c0 40.487 32.971 73.426 73.499 73.426h19.583c5.995-.01 11.881-.695 17.591-1.976l7.5-34.927-7.499-100.419z" fill="#e72d5a"/><path d="m318.484 70.05-.081-25.158-62.403-31.773v135.346c14.695-3.296 28.186-10.664 39.081-21.583 15.16-15.194 23.472-35.378 23.403-56.832z" fill="#ce0c51"/><path d="m235.677 0c-23.248 0-42.162 18.895-42.162 42.12s18.914 42.12 42.162 42.12h20.323l13.406-42.12-13.406-42.12z" fill="#fd465f"/><path d="m276.323 0h-20.323v84.24h20.323c23.248 0 42.162-18.895 42.162-42.12s-18.914-42.12-42.162-42.12z" fill="#e72d5a"/></g></svg>