<svg id="Capa_1" enable-background="new 0 0 512 512" height="512" viewBox="0 0 512 512" width="512" xmlns="http://www.w3.org/2000/svg"><g><g><g><path d="m450.921.082c-23.32-.828-48.956 4.627-74.147 15.767-23.308 10.307-45.476 25.315-62.395 42.234l-84.436 84.026v100.409h1.349l133.741-101.718 107.944-139.967z" fill="#f7fcff"/><path d="m473 .834-.023-.001-241.685 241.686h100.708l82.893-83.871c16.944-16.944 31.953-39.112 42.259-62.42 11.139-25.192 16.672-50.831 15.848-74.149z" fill="#ecf3fb"/></g><g><path d="m313.489 158.465v-99.95l-29.233 29.092v100.092h1.403l22.842-10.332 6.391-18.902z" fill="#e0e6f5"/><path d="m285.659 187.699h100.073l28.892-29.234h-99.732z" fill="#d9d6ec"/></g><g><path d="m361.863 89.727-201.413 199.638 11.719 11.824 110.539-98.995 89.991-101.535z" fill="#ca7a33"/><path d="m172.169 301.189 8.861 8.939 201.413-199.639-9.744-9.83z" fill="#b1532b"/></g></g><g><path d="m367.306 445.431-12.17-7.845h-37.386v74.414h37.805l11.751-6.973z" fill="#585f64"/><path d="m438.089 437.586-23.921 15.471v44.926l23.221 14.017h38.21v-74.414z" fill="#474f54"/></g><path d="m355.129 437.586v74.414h41.546l14.819-32.228-14.819-42.186z" fill="#474f54"/><path d="m396.675 437.586h41.556v74.414h-41.556z" fill="#31383e"/><g><path d="m87.353 282.247v19.517c9.211 0 16.705 7.494 16.705 16.706s-7.494 16.705-16.705 16.705l-46.546 29.956h119.643l14.249-43.723-14.249-39.161c-33.11 0-66.124 0-73.097 0z" fill="#21c8c7"/><path d="m234.276 335.175c-9.212 0-16.705-7.494-16.705-16.705 0-9.212 7.494-16.706 16.705-16.706v-19.517c-7.024 0-40.473 0-73.826 0v82.884h120.372z" fill="#17a0a9"/></g><g><path d="m36.401 335.132v176.868h124.049l19.771-91.587-19.771-85.281z" fill="#6ae1db"/><path d="m160.45 335.132h124.778v176.867h-124.778z" fill="#21c8c7"/><path d="m72.014 271.808v29.956h88.436l11.719-13.095-11.719-16.861z" fill="#6ae1db"/></g><g><path d="m98.781 433.205v29.956h61.669l14.249-14.978-14.249-14.978z" fill="#f7fcff"/></g><path d="m160.45 433.205h62.201v29.956h-62.201z" fill="#ecf3fb"/><path d="m160.45 271.808h89.165v29.956h-89.165z" fill="#21c8c7"/></g></svg>