<svg id="Capa_1" enable-background="new 0 0 512 512" height="512" viewBox="0 0 512 512" width="512" xmlns="http://www.w3.org/2000/svg"><g><g><path d="m132.649 241.388c0-13.507 3.65-24.118 11.487-33.392l-84.704-105.272-29.14 7.068 49.761 206.425 26.298 12.604 26.298-12.604z" fill="#585f64"/><path d="m80.053 316.218 6.798 28.203h45.798v-28.203z" fill="#474f54"/></g><g fill="#e0e6f5"><path d="m454.907 0h28.535v28.512h-28.535z" transform="matrix(-1 0 0 -1 938.349 28.512)"/><path d="m483.442 28.512h28.558v28.512h-28.558z" transform="matrix(-1 0 0 -1 995.442 85.535)"/><path d="m426.395 28.512h28.512v28.512h-28.512z" transform="matrix(-1 0 0 -1 881.302 85.535)"/><path d="m454.907 57.023h28.535v28.512h-28.535z" transform="matrix(-1 0 0 -1 938.349 142.559)"/><path d="m394.909 99.282h28.535v28.512h-28.535z" transform="matrix(-1 0 0 -1 818.353 227.076)"/></g><g><g><path d="m211 396.683h-211c6.939 7.383 11.38 17.314 11.38 28.245 0 11.025-4.333 21.058-11.38 28.458l6.137 2.984h185.689l1.71 41.741h74.694l-12.23-56.428c0-24.853-20.147-45-45-45z" fill="#fff7e7"/></g><g><path d="m301 396.683h211c-6.939 7.383-11.38 17.314-11.38 28.245 0 11.025 4.333 21.058 11.38 28.458l-6.137 2.984h-185.689l-1.71 41.741h-62.464v-56.428c0-24.853 20.147-45 45-45z" fill="#ffe6ce"/></g><g><path d="m213.124 482v-28.614h-213.124v30h183.124v28.614h72.876l13.406-13.889-13.406-16.111z" fill="#fdd752"/><path d="m298.236 453.386v28.614h-42.236v30h72.236v-28.614h183.764v-30z" fill="#f8bd3f"/></g></g><g><path d="m253.678 188.837-139.922-163.102h-6.896c-20.493 0-39.75 7.99-54.224 22.499s-22.416 33.784-22.367 54.277l.023 7.282s82.581 63.289 167.747 166.607c17.236 20.909 35.616 39.955 57.961 52.422l24.309-43.073-24.309-94.349c-.791-.835-1.569-1.685-2.322-2.563z" fill="#fd465f"/><path d="m466.136 278.611c-10.204-14.817-24.48-26.041-41.287-32.457l-86.652-33.085h-31.804c-19.133 0-37.304-7.86-50.393-21.669v137.422c16.66 9.295 35.519 14.938 57.771 14.938h167.961v-15c-.001-17.991-5.394-35.332-15.596-50.149z" fill="#ce0c51"/></g></g></svg>