<svg id="Capa_1" enable-background="new 0 0 512 512" height="512" viewBox="0 0 512 512" width="512" xmlns="http://www.w3.org/2000/svg"><g><g><path d="m301.01 138.203v50.169h14.972l7.486-25.085-7.486-25.084z" fill="#ffe6ce"/><path d="m315.982 138.203h14.972v50.168h-14.972z" fill="#fccab4"/></g><g><path d="m239.238 173.4v138.854h76.744l21.237-59.762-21.237-79.092z" fill="#fff7e7"/><path d="m315.982 173.4h76.744v138.854h-76.744z" fill="#ffe6ce"/></g><g><path d="m285.394 42.645c-18.696 29.595-20.859 42.704-20.859 49.99 0 28.368 23.079 51.446 51.447 51.446l14.972-80.824-14.972-63.257s-21.02 27.499-30.588 42.645z" fill="#fdd752"/></g><g><path d="m239.238 325.508v171.237h76.744l14.972-91.737-14.972-79.5z" fill="#585f64"/><path d="m440.355 482.198c-20.826 0-38.561-13.867-45.016-32.526-1.685-4.871-2.613-10.092-2.613-15.528v-108.636h-76.744v171.237h78.618z" fill="#474f54"/></g><g><path d="m244.081 512h71.901l14.972-14.972-14.972-14.972h-71.901z" fill="#474f54"/><path d="m203.675 306.43v29.944h112.307l7.486-14.972-7.486-14.972z" fill="#474f54"/><g fill="#31383e"><path d="m440.167 419.729h-47.441v14.415c0 5.437.928 10.658 2.613 15.528h44.828c39.492 0 71.621-32.129 71.621-71.621s-32.129-71.621-71.621-71.621h-124.185v29.944h124.185c22.981 0 41.678 18.696 41.678 41.678-.001 22.981-18.697 41.677-41.678 41.677z"/><path d="m440.379 419.672h-47.441v14.415c0 5.437.928 10.658 2.613 15.528h44.828c39.492 0 71.621-32.129 71.621-71.621s-32.129-71.621-71.621-71.621h-124.185v29.944h124.185c22.981 0 41.678 18.696 41.678 41.678-.001 22.981-18.697 41.677-41.678 41.677z"/></g></g><g><g><path d="m0 400.84 24.717-14.239h210.253c29.413 0 53.258 23.844 53.258 53.258 0 .512-.024 1.019-.039 1.527l-128.746 25.865-118.373-25.865c-.025-22.362-18.243-40.546-41.07-40.546z" fill="#f7fcff"/><path d="m41.071 441.43c0-.015-.001-.03-.001-.044h247.119c-.811 28.705-24.318 51.73-53.219 51.73h-217.849l-17.121-11.139c22.842 0 41.071-18.165 41.071-40.547z" fill="#ecf3fb"/></g><g><path d="m245.02 400.84h-245.02v-30.068h245.02c38.937 0 70.614 31.677 70.614 70.614l-17.609 7.384-12.459-7.384c0-22.358-18.189-40.546-40.546-40.546z" fill="#89ce6d"/><path d="m285.566 441.386h30.068c0 38.937-31.677 70.614-70.614 70.614h-245.02v-30.023l245.02-.044c22.357-.001 40.546-18.19 40.546-40.547z" fill="#5eb16a"/><path d="m37.988 426.086h206.865v15.3l-112.917 6.098-90.866-6.098c-.006-5.412-1.106-10.576-3.082-15.3z" fill="#ecf3fb"/><path d="m38.238 456.154c1.822-4.568 2.833-9.531 2.833-14.723 0-.015-.001-.03-.001-.044h203.783v14.768h-206.615z" fill="#e0e6f5"/></g></g><path d="m346.57 42.645c-9.569-15.146-30.588-42.645-30.588-42.645v144.082c28.367 0 51.446-23.078 51.446-51.446 0-7.287-2.162-20.396-20.858-49.991z" fill="#f8bd3f"/><g><path d="m300.688 93.364c-9.348 14.797-10.429 21.352-10.429 24.995 0 14.184 11.539 25.723 25.723 25.723l7.486-29.056-7.486-42.985s-10.51 13.749-15.294 21.323z" fill="#fd465f"/></g><path d="m331.276 93.364c-4.784-7.573-15.294-21.323-15.294-21.323v72.041c14.184 0 25.723-11.539 25.723-25.723 0-3.643-1.081-10.198-10.429-24.995z" fill="#ce0c51"/><path d="m315.982 482.056h163.693v29.944h-163.693z" fill="#31383e"/></g></svg>