<svg id="Capa_1" enable-background="new 0 0 512 512" height="512" viewBox="0 0 512 512" width="512" xmlns="http://www.w3.org/2000/svg"><g><g><g><path d="m181.656 173.121-21.165-21.165 151.956-151.956 59.084 59.083-21.165 21.165-37.919-37.918z" fill="#fdd752"/></g></g><g><path d="m251.715 184.619-169.085 169.085 23.965 51.742 102.687-77.723 80.286-105.25z" fill="#89ce6d"/><path d="m106.595 405.446 51.811 24.033 169.084-169.084-37.922-37.922z" fill="#5eb16a"/></g><path d="m268.329 133.115-45.555 44.989 55.582 55.581 29.678-11.212 25.146-43.612z" fill="#5eb16a"/><g><path d="m82.63 353.704-64.897 36.115-17.692 122.181 94.635-55.846 25.808-64.597z" fill="#f7fcff"/><path d="m.041 512 122.146-17.686 36.219-64.835-37.922-37.922z" fill="#ecf3fb"/></g><g><path d="m66.672 425.972-63.151 61.996-3.48 24.032 48.397-38.103 27.809-38.103z" fill="#ecf3fb"/><path d="m.041 512 22.954-3.324 63.073-62.771-9.821-10.111z" fill="#e0e6f5"/></g><g><path d="m333.18 178.861-54.824 54.824 54.479 54.479 45.272-45.271z" fill="#009b5c"/></g><g><path d="m489.405 22.515c-29.886-29.887-78.666-30.039-108.739-.34l-112.337 110.94 55.298 55.298 88.443-60.506 77.394-105.33c-.021-.02-.039-.042-.059-.062z" fill="#89ce6d"/><path d="m323.628 188.414 54.479 54.479 111.298-111.297c30.053-30.053 30.072-78.94.059-109.018z" fill="#5eb16a"/></g></g></svg>