<svg id="Capa_1" enable-background="new 0 0 512 512" height="512" viewBox="0 0 512 512" width="512" xmlns="http://www.w3.org/2000/svg"><g><path d="m53.702 140.241c-14.358 0-27.834 5.585-37.945 15.725-10.203 10.23-15.798 23.877-15.757 38.381v273.387l29.977-.703 39.96-5.15 13.211-163.605-13.211-158.035z" fill="#21c8c7"/><path d="m34.667 435.027c-8.912 8.567-13.819 19.933-13.819 32.004 0 12.072 4.907 23.438 13.819 32.005 2.193 2.108 15.863 3.474 35.27 4.339l15.853-36.343-15.853-35.165c-19.706.278-33.24 1.208-35.27 3.16z" fill="#f7fcff"/><g><path d="m69.937 431.866v71.509c26.501 1.181 63.701 1.426 97.008 1.347l13.303-39.909-13.303-31.533c-34.951-1.032-71.252-1.78-97.008-1.414z" fill="#ecf3fb"/><path d="m291.521 467.031c0-7.987 6.822-14.992 15.273-14.992l-31.687-14.988c-5.516 0-55.295-2.211-108.161-3.771v71.442c39.041-.093 72.732-.631 77.556-.631l62.293-22.067c-8.452-.001-15.274-7.006-15.274-14.993z" fill="#e0e6f5"/></g><g><g><g><g><path d="m69.937 140.241v298.895l97.008-6.993 19.249-103.857-19.249-188.045z" fill="#6ae1db"/><path d="m306.794 140.241h-139.849v291.902l139.849-10.081z" fill="#21c8c7"/></g></g><g><path d="m29.977 467.031c0-7.987 7.414-14.992 15.865-14.992h24.095l8.807-14.988-8.807-14.988h-24.095c-11.954 0-23.327 4.604-32.023 12.965-8.912 8.565-13.819 19.931-13.819 32.003s4.907 23.438 13.819 32.005c8.697 8.36 20.07 12.964 32.023 12.964h24.095l13.211-14.988-13.211-14.988h-24.095c-8.451-.001-15.865-7.006-15.865-14.993z" fill="#6ae1db"/></g></g><g><path d="m306.794 341.472 19.183-127.22-19.183-166.569c0-26.335-22.139-47.683-48.473-47.683h-158.315v318.164h173.404c14.771 0 29.373 9.836 33.384 23.308z" fill="#fff7e7"/><g><path d="m353.686 0c-26.334 0-46.892 21.348-46.892 47.683v293.79c4.009-13.477 17.027-23.308 31.802-23.308h173.404v-318.165z" fill="#ffe6ce"/></g></g><g><g><g><path d="m354.755 120.217h111.512v29.977h-111.512z" fill="#fccab4"/></g><g><path d="m354.755 63.259h111.512v29.977h-111.512z" fill="#fccab4"/></g><g><path d="m354.755 176.408h111.512v29.977h-111.512z" fill="#fccab4"/></g><g><path d="m354.755 232.599h111.512v29.977h-111.512z" fill="#fccab4"/></g></g></g><g><path d="m144.488 120.217h111.512v29.977h-111.512z" fill="#ffe6ce"/></g><g><path d="m144.488 63.259h111.512v29.977h-111.512z" fill="#ffe6ce"/></g><g><path d="m144.488 176.408h111.512v29.977h-111.512z" fill="#ffe6ce"/></g><g><path d="m144.488 232.599h111.512v29.977h-111.512z" fill="#ffe6ce"/></g></g><g fill="#21c8c7"><path d="m69.937 512h97.008l13.304-14.988-13.304-14.989h-97.008z"/><path d="m69.937 422.062v29.977h97.008l10.001-14.989-10.001-14.988z"/></g><g fill="#17a0a9"><path d="m166.945 482.023h139.849v29.977h-139.849z"/><path d="m166.945 422.062h139.849v29.977h-139.849z"/></g></g></svg>