<svg id="Capa_1" enable-background="new 0 0 512 512" height="512" viewBox="0 0 512 512" width="512" xmlns="http://www.w3.org/2000/svg"><g><path d="m64.548 264.518h-64.548v-88.866h30.018v58.848h21.911z" fill="#585f64"/><path d="m512 264.518h-64.548l12.619-30.018h21.911v-58.848h30.018z" fill="#474f54"/><g><path d="m51.893 103.094h204.107v161.424h-204.107z" fill="#fd6c5f"/><path d="m256 103.094h203.403v161.424h-203.403z" fill="#fd465f"/></g><g><path d="m120.261 0v264.38h135.739l27.036-154.638-27.036-109.742z" fill="#f7fcff"/><path d="m256 0h135.739v264.38h-135.739z" fill="#ecf3fb"/></g><g><path d="m186.249 62.52v30.018h69.751l11.183-14.291-11.183-15.727z" fill="#e0e6f5"/><path d="m256 62.52h69.047v30.018h-69.047z" fill="#d9d6ec"/><path d="m186.249 153.579h69.751l11.183-15.009-11.183-15.009h-69.751z" fill="#e0e6f5"/></g><g><path d="m51.929 234.639-40.615 277.361h244.686l31.99-123.674-31.99-153.687z" fill="#fd465f"/><path d="m460.071 234.639h-204.071v277.361h244.686z" fill="#ce0c51"/></g><g><path d="m109.778 434.794h30.927v30.018h-30.927z" fill="#585f64"/></g><g><path d="m109.778 373.317h30.927v30.018h-30.927z" fill="#585f64"/></g><g><path d="m175.822 373.317h30.927v30.018h-30.927z" fill="#585f64"/></g><g><path d="m306.908 373.317h30.927v30.018h-30.927z" fill="#31383e"/></g><g><path d="m109.778 313.277h30.927v30.018h-30.927z" fill="#585f64"/></g><g><path d="m175.822 313.277h30.927v30.018h-30.927z" fill="#585f64"/></g><g><path d="m306.908 313.277h30.927v30.018h-30.927z" fill="#31383e"/></g><g><path d="m371.295 313.277h30.928v30.018h-30.928z" fill="#31383e"/></g><g><path d="m401.402 464.812h-62.506v-30.018h32.488v-60.776h30.018z" fill="#31383e"/></g><g><path d="m174.357 434.794v30.018h81.643l7.896-15.009-7.896-15.009z" fill="#585f64"/><path d="m256 434.794h47.976v30.018h-47.976z" fill="#31383e"/><path d="m240.865 373.317v30.018h15.135l7.896-15.009-7.896-15.009z" fill="#585f64"/><path d="m256 373.317h15.792v30.018h-15.792z" fill="#31383e"/><path d="m240.865 313.277v30.018h15.135l7.896-12.269-7.896-17.749z" fill="#585f64"/></g><path d="m256 313.277h15.792v30.018h-15.792z" fill="#31383e"/><path d="m256 123.561h69.047v30.018h-69.047z" fill="#d9d6ec"/></g></svg>