<svg id="Capa_1" enable-background="new 0 0 512 512" height="512" viewBox="0 0 512 512" width="512" xmlns="http://www.w3.org/2000/svg"><g><g><path d="m65.888 0c-36.331 0-65.888 29.557-65.888 65.888v293.475h94.159l19.229-169.42-19.229-189.943z" fill="#5eb16a"/><path d="m357.811 0h-263.652v359.362l263.652-67.686z" fill="#009b5c"/><g><path d="m80.664 307.505c-29.413 0-53.258 23.844-53.258 53.258 0 .512.024 1.019.039 1.527.811 28.705 24.318 51.73 53.219 51.73h13.496v-106.515z" fill="#f7fcff"/></g><g><path d="m296.371 129.734h-140.772v-69.53h140.772z" fill="#ecf3fb"/></g><g><path d="m316.74 362.334c0-.015.001-.03.001-.044.025-22.362 18.243-40.546 41.07-40.546l-24.717-14.239h-238.935v106.515h246.531l17.121-11.139c-22.842 0-41.071-18.165-41.071-40.547z" fill="#ecf3fb"/><path d="m317.089 362.29c.005-5.412.981-10.576 2.734-15.3h-225.664v30.068h225.441c-1.616-4.568-2.512-9.531-2.512-14.723 0-.015.001-.03.001-.045z" fill="#e0e6f5"/><g><path d="m30.068 362.29c0-22.358 18.189-40.546 40.546-40.546h23.545l10.161-14.239-10.161-15.829h-23.545c-38.937 0-70.614 31.677-70.614 70.614s31.677 70.614 70.614 70.614h23.545l10.161-10.358-10.161-19.705-23.545-.004c-22.357-.001-40.546-18.19-40.546-40.547z" fill="#89ce6d"/><path d="m94.159 291.676h263.652v30.068h-263.652z" fill="#5eb16a"/></g></g><path d="m357.811 432.904v-30.023l-263.652-.04v30.063z" fill="#5eb16a"/></g><g><path d="m256.727 173.448c-31.77 0-57.616 25.846-57.616 57.616v216.627h82.338l16.815-148.15-16.815-126.093z" fill="#fdd752"/><path d="m512 173.448h-230.551v274.243l230.551-59.188z" fill="#f8bd3f"/><g><path d="m269.648 402.344c-25.721 0-46.571 20.851-46.571 46.571 0 .448.021.891.034 1.336.709 25.101 21.265 45.236 46.537 45.236h11.801v-93.143z" fill="#fff7e7"/></g><g><path d="m476.085 450.29c0-.013.001-.026.001-.039.022-19.554 15.953-35.456 35.914-35.456l-21.614-12.451h-208.937v93.143h215.58l14.971-9.741c-19.974 0-35.915-15.884-35.915-35.456z" fill="#ffe6ce"/><g><path d="m227.404 450.251c0-19.551 13.905-32.635 33.456-32.635h20.589l8.885-15.272-8.885-13.842h-20.589c-34.048 0-61.749 27.7-61.749 61.749s27.701 61.749 61.749 61.749h20.589l8.885-9.058-8.885-20.247-20.589-.004c-19.551 0-33.456-12.889-33.456-32.44z" fill="#fee386"/><path d="m281.449 388.503h230.551v29.114h-230.551z" fill="#fdd752"/></g></g><path d="m512 512v-29.268l-230.551-.039v29.307z" fill="#fdd752"/></g><g><g><path d="m350.917 319.301h96.988v30.03h-96.988z" fill="#fdd752"/></g></g></g></svg>