<svg id="Capa_1" enable-background="new 0 0 512 512" height="512" viewBox="0 0 512 512" width="512" xmlns="http://www.w3.org/2000/svg"><g><g><path d="m257.908 411.735h-57.865l-9.38 25.011c-10.15 27.068-36.393 45.254-65.302 45.254h-1.277v30h133.825v-100.265z" fill="#474f54"/><path d="m256 371.025h-256v-371.025h256l27.738 234.071z" fill="#e0e6f5"/><path d="m256 0h256v371.025h-256z" fill="#d9d6ec"/><path d="m387.917 482c-28.908 0-55.151-18.186-65.303-45.253l-9.38-25.011h-57.234v100.264h131.917z" fill="#31383e"/><path d="m257.646 439.317h-257.646v-72.681h257.646l16.884 38.032z" fill="#585f64"/><path d="m256 366.637h256v72.681h-256z" fill="#474f54"/></g><g><g><path d="m256 294.062-210.997-32.363v-223.159h163.315c26.334 0 47.682 21.348 47.682 47.683l19.974 161.569z" fill="#f7fcff"/><path d="m256 298.492 210.997-36.793v-223.159h-163.314c-26.335 0-47.683 21.348-47.683 47.683z" fill="#ecf3fb"/></g><g><path d="m98.476 174.226h97.105v30h-97.105z" fill="#ecf3fb"/></g><g><path d="m98.476 114.734h97.105v30h-97.105z" fill="#ecf3fb"/></g><g><path d="m305.847 114.734h116.303v30h-116.303z" fill="#e0e6f5"/></g><g><path d="m305.847 173.423h116.303v30h-116.303z" fill="#e0e6f5"/></g><g><path d="m256 319.765h-210.997v-58.067h178.404c18 0 32.593 14.592 32.593 32.593l9.057 15.076z" fill="#6ae1db"/><path d="m256 319.765h210.997v-58.067h-178.404c-18 0-32.593 14.592-32.593 32.593z" fill="#21c8c7"/></g></g></g></svg>