<svg id="Capa_1" enable-background="new 0 0 512 512" height="512" viewBox="0 0 512 512" width="512" xmlns="http://www.w3.org/2000/svg"><g><g><path d="m48.558 167.918 1.56 16.418c1.349 14.213 4.32 28.088 8.794 41.392 7.848 23.338 170.453 85.797 237.997 110.856l26.961-74.886-26.961-93.775z" fill="#21c8c7"/><path d="m322.615 52.56-25.777-.184v30h.18v.184h21.185c21.776 1.965 38.9 20.311 38.9 42.59 0 23.586-19.188 42.774-42.773 42.774h-17.421v168.661c17.819 6.611 29.027 10.621 29.027 10.621l19.288-.219c34.605-5.306 66.347-22.877 89.376-49.476 23.271-26.879 36.088-61.284 36.088-96.879-.001-81.648-66.426-148.072-148.073-148.072z" fill="#17a0a9"/></g><g><path d="m211 396.683h-211c6.939 7.383 11.38 17.314 11.38 28.245 0 11.025-4.333 21.058-11.38 28.458l6.137 2.984h185.689l1.71 41.741h74.694l-12.23-56.428c0-24.853-20.147-45-45-45z" fill="#f7fcff"/><path d="m301 396.683h211c-6.939 7.383-11.38 17.314-11.38 28.245 0 11.025 4.333 21.058 11.38 28.458l-6.137 2.984h-185.689l-1.71 41.741h-62.464v-56.428c0-24.853 20.147-45 45-45z" fill="#ecf3fb"/><path d="m213.124 482v-28.614h-213.124v30h183.124v28.614h72.876l13.406-13.889-13.406-16.111z" fill="#fd465f"/><path d="m298.236 453.386v28.614h-42.236v30h72.236v-28.614h183.764v-30z" fill="#ce0c51"/></g><g><g><g><path d="m161.98 225.728h-103.067c9.919 29.494 27.226 56.182 50.653 77.517 34.167 31.114 78.582 48.249 125.064 48.249 12.409 0 24.819-1.234 36.886-3.669l54.418-.619-72.265-80.555c-23.364-26.044-56.701-40.923-91.689-40.923z" fill="#f7fcff"/></g><g><path d="m123.184 136.385h-30v-43.719c0-6.029-4.905-10.935-10.936-10.935-6.029 0-10.935 4.905-10.935 10.935v7.885h-30v-7.885c0-22.571 18.363-40.935 40.935-40.935s40.936 18.363 40.936 40.935z" fill="#e0e6f5"/></g><g><path d="m123.184 136.385h-30v-43.719c0-22.571 18.363-40.935 40.935-40.935s40.935 18.363 40.935 40.935v7.885h-30v-7.885c0-6.029-4.905-10.935-10.935-10.935s-10.935 4.905-10.935 10.935z" fill="#d9d6ec"/></g></g><path d="m364.621 360.439h-37.882c-48.548 0-87.905-39.356-87.905-87.905v-19.894l82.184 61.576z" fill="#6ae1db"/><path d="m364.621 360.439-125.787-107.799 37.882.049c48.549 0 87.905 39.356 87.905 87.905z" fill="#21c8c7"/></g><g><path d="m301.728 64.849c0-35.758-29.091-64.849-64.848-64.849h-34.31v36.12c0 12.197 4.85 23.276 12.71 31.434l40.72 12.167 45.728-12.167z" fill="#6ae1db"/></g><path d="m215.28 67.554s0 .001 0 0c-7.861 8.158-12.71 19.238-12.71 31.435v36.12h34.31c35.757 0 64.848-29.091 64.848-64.849v-2.705h-86.448z" fill="#21c8c7"/></g></svg>