<svg id="Capa_1" enable-background="new 0 0 512 512" height="512" viewBox="0 0 512 512" width="512" xmlns="http://www.w3.org/2000/svg"><g><g><g><g><g><path d="m83.816 31.197c-36.331 0-65.888 29.557-65.888 65.888v341.374h94.159l19.229-169.42-19.229-237.842z" fill="#ca7a33"/><path d="m387.773 31.197h-275.686v407.261l275.686-67.686z" fill="#b1532b"/><g><path d="m98.592 386.601c-29.413 0-53.258 23.844-53.258 53.258 0 .512.024 1.019.039 1.527.811 28.705 24.318 51.73 53.219 51.73h13.496v-106.515z" fill="#f7fcff"/></g><g><path d="m346.702 441.43c0-.015.001-.03.001-.044.025-22.362 18.243-40.546 41.07-40.546l-24.717-14.239h-250.969v106.515h258.565l17.121-11.139c-22.842 0-41.071-18.165-41.071-40.547z" fill="#ecf3fb"/><path d="m347.052 441.386c.005-5.412.981-10.576 2.734-15.3h-237.699v30.068h237.476c-1.616-4.568-2.512-9.531-2.512-14.723 0-.015.001-.03.001-.045z" fill="#e0e6f5"/><g><path d="m47.996 441.386c0-22.358 18.189-40.546 40.546-40.546h23.545l10.161-14.239-10.161-15.829h-23.545c-38.937 0-70.614 31.677-70.614 70.614s31.677 70.614 70.614 70.614h23.545l10.161-10.358-10.161-19.705-23.545-.004c-22.357-.001-40.546-18.19-40.546-40.547z" fill="#b1532b"/><path d="m112.087 370.772h275.686v30.068h-275.686z" fill="#983424"/></g></g><path d="m387.773 512v-30.023l-275.686-.04v30.063z" fill="#983424"/></g></g></g></g><g><path d="m342.709 174.63v168.414l45.064-25.894 13.493-71.771-13.493-70.749z" fill="#89ce6d"/><path d="m387.773 174.63v142.52l45.064 25.894v-168.414z" fill="#5eb16a"/></g><g><path d="m353.062 22.49-40.453 8.645-8.644 40.452-22.49 34.712 22.489 34.712 8.644 40.452 40.453 8.645 34.712 22.49 13.493-108.428-13.493-104.17z" fill="#f8bd3f"/><path d="m471.582 71.587-8.644-40.452-40.453-8.645-34.712-22.49v212.598l34.712-22.49 40.452-8.644 8.645-40.453 22.49-34.712z" fill="#fd9326"/></g><g><path d="m343.818 106.299c0 24.237 19.718 43.955 43.955 43.955l13.493-43.955-13.493-43.955c-24.237 0-43.955 19.718-43.955 43.955z" fill="#fdd752"/><path d="m387.773 62.344v87.91c24.237 0 43.955-19.718 43.955-43.955s-19.718-43.955-43.955-43.955z" fill="#f8bd3f"/></g></g></svg>