<svg id="Capa_1" enable-background="new 0 0 512 512" height="512" viewBox="0 0 512 512" width="512" xmlns="http://www.w3.org/2000/svg"><g><g><path d="m142.983 89.097c-36.331 0-65.888 29.557-65.888 65.888v283.474h94.159l19.229-169.42-19.229-179.942z" fill="#474f54"/><path d="m434.905 89.097h-128.6l-39.009 17.202-33.027-17.202h-63.015v349.361l263.651-67.686z" fill="#31383e"/><g><path d="m157.758 386.601c-29.413 0-53.258 23.844-53.258 53.258 0 .512.024 1.019.039 1.527.811 28.705 24.318 51.73 53.219 51.73h13.496v-106.515z" fill="#f7fcff"/></g><g><path d="m393.834 441.43c0-.015.001-.03.001-.044.025-22.362 18.243-40.546 41.07-40.546l-24.717-14.239h-238.934v106.515h246.531l17.121-11.139c-22.842 0-41.072-18.165-41.072-40.547z" fill="#ecf3fb"/><path d="m394.184 441.386c.005-5.412.981-10.576 2.734-15.3h-225.664v30.068h225.441c-1.616-4.568-2.512-9.531-2.512-14.723 0-.015.001-.03.001-.045z" fill="#e0e6f5"/><g><path d="m107.162 441.386c0-22.358 18.189-40.546 40.546-40.546h23.545l10.161-14.239-10.161-15.829h-23.545c-38.937 0-70.614 31.677-70.614 70.614s31.678 70.614 70.615 70.614h23.545l10.161-10.358-10.161-19.705-23.545-.004c-22.358-.001-40.547-18.19-40.547-40.547z" fill="#585f64"/><path d="m171.254 370.772h263.652v30.068h-263.652z" fill="#474f54"/></g></g><path d="m434.905 512v-30.023l-263.651-.04v30.063h63.015l36.018-13.889 36.018 13.889z" fill="#474f54"/></g><path d="m77.095 215.162v72.035h94.159l13.474-32.984-13.474-39.051z" fill="#fd6c5f"/><g><path d="m234.269 89.097v422.903h37.68l11.861-258.448-11.861-164.455z" fill="#fd6c5f"/><path d="m271.949 89.097h34.355v422.903h-34.355z" fill="#fd465f"/></g><g><path d="m220.614 30c-5.637 0-10.936 2.195-14.922 6.182-8.229 8.229-8.229 21.617 0 29.846 4.467 4.466 23.865 11.447 46.832 17.28-5.998-24.558-12.941-43.08-16.987-47.126-3.987-3.987-9.286-6.182-14.923-6.182z" fill="none"/><path d="m338.111 36.182c-3.986-3.987-9.285-6.182-14.922-6.182s-10.937 2.195-14.923 6.182c-4.035 4.035-10.868 22.561-16.695 47.126 22.797-5.832 42.072-12.813 46.541-17.28 8.228-8.229 8.228-21.618-.001-29.846z" fill="none"/><path d="m256.75 14.969c-9.653-9.653-22.486-14.969-36.136-14.969s-26.483 5.316-36.135 14.969c-9.652 9.652-14.968 22.485-14.968 36.136s5.316 26.483 14.968 36.136c12.92 12.92 81.279 28.981 87.471 30.415l9.5-22.966-9.5-51.582c-4.325-11.859-9.435-22.374-15.2-28.139zm-51.059 51.058c-8.229-8.229-8.229-21.617 0-29.846 3.986-3.986 9.285-6.182 14.922-6.182s10.937 2.195 14.922 6.182c4.046 4.046 10.99 22.568 16.987 47.126-22.965-5.832-42.364-12.814-46.831-17.28z" fill="#fd465f"/></g><path d="m359.324 87.24c9.652-9.652 14.968-22.485 14.968-36.136s-5.316-26.483-14.968-36.136c-9.652-9.652-22.485-14.968-36.135-14.968s-26.483 5.316-36.136 14.969c-5.771 5.771-10.84 16.285-15.102 28.143 0-.001-.001-.002-.001-.004v74.548c.295.068 0 0 0 0s73.87-16.912 87.374-30.416zm-51.058-51.058c3.986-3.986 9.286-6.182 14.923-6.182s10.936 2.195 14.922 6.182c8.229 8.229 8.229 21.617 0 29.846-4.468 4.468-23.744 11.448-46.541 17.28 5.828-24.566 12.661-43.091 16.696-47.126z" fill="#ce0c51"/><path d="m171.254 215.162v72.035h100.695l9.5-33.975-9.5-38.06z" fill="#fd465f"/><path d="m271.949 215.162h162.956v72.036h-162.956z" fill="#ce0c51"/></g></svg>