<svg id="Capa_1" enable-background="new 0 0 512 512" height="512" viewBox="0 0 512 512" width="512" xmlns="http://www.w3.org/2000/svg"><g><g><path d="m211 396.683h-211c6.939 7.383 11.38 17.314 11.38 28.245 0 11.025-4.333 21.058-11.38 28.458l6.137 2.984h185.689l1.71 41.741h74.694l-12.23-56.428c0-24.853-20.147-45-45-45z" fill="#f7fcff"/><path d="m301 396.683h211c-6.939 7.383-11.38 17.314-11.38 28.245 0 11.025 4.333 21.058 11.38 28.458l-6.137 2.984h-185.689l-1.71 41.741h-62.464v-56.428c0-24.853 20.147-45 45-45z" fill="#ecf3fb"/><path d="m213.124 482v-28.614h-213.124v30h183.124v28.614h72.876l13.406-13.889-13.406-16.111z" fill="#6ae1db"/><path d="m298.236 453.386v28.614h-42.236v30h72.236v-28.614h183.764v-30z" fill="#21c8c7"/></g><g><g><path d="m256 60.89-29.954-29.954c-19.949-19.949-46.473-30.936-74.687-30.936-28.213 0-54.737 10.987-74.686 30.936-19.95 19.949-30.937 46.474-30.937 74.686 0 28.213 10.987 54.737 30.937 74.687l179.327 179.327 7.015-132.166-7.015-52.84z" fill="#fd6c5f"/></g><path d="m256 60.89-56.904 56.836 56.904 56.904 15.153-56.887z" fill="#fd465f"/><path d="m328.119 235.194-72.119-60.564v185.006l42.487-42.486z" fill="#fd465f"/><g><path d="m435.327 30.936c-19.949-19.949-46.474-30.936-74.686-30.936-28.214 0-54.738 10.987-74.687 30.936l-29.954 29.954v113.74l55.146 55.146-50.016 50.016 37.357 37.357 136.84-136.841c19.95-19.949 30.937-46.474 30.937-74.687-.001-28.211-10.988-54.736-30.937-74.685z" fill="#ce0c51"/></g></g></g></svg>