<svg id="Capa_1" enable-background="new 0 0 512.227 512.227" height="512" viewBox="0 0 512.227 512.227" width="512" xmlns="http://www.w3.org/2000/svg"><g><g><g><path d="m-1.822 105.093h251.198v30h-251.198z" fill="#f7fcff" transform="matrix(.872 -.49 .49 .872 -42.983 76.114)"/></g><g><path d="m373.158-5.385h30v249.569h-30z" fill="#ecf3fb" transform="matrix(.505 -.863 .863 .505 89.193 394.25)"/></g><g><path d="m139.108 167.051h-138.994v54.258l256 24.331 16.745-65.821-16.745-58.308c-43.196 1.264-84.344 17.275-117.006 45.54z" fill="#585f64"/><path d="m512.114 221.308v-54.258h-127.91c-34.057-29.472-77.338-45.631-122.548-45.631-1.851 0-3.698.037-5.542.091v124.13l1.908.181z" fill="#474f54"/><path d="m.114 466.596h138.994c32.662 28.265 73.81 44.275 117.006 45.54l27.294-56.172-27.294-59.007-256 15.382v54.257z" fill="#585f64"/></g><g><path d="m217.751 38.363c0 21.154 17.209 38.363 38.363 38.363l11.22-38.363-11.22-38.363c-21.154 0-38.363 17.209-38.363 38.363z" fill="#89ce6d"/><path d="m256.114 0v76.726c21.154 0 38.363-17.209 38.363-38.363s-17.21-38.363-38.363-38.363z" fill="#5eb16a"/></g><path d="m261.656 512.227c45.21 0 88.491-16.159 122.548-45.631h127.91v-54.258l-251.437-15.656-4.563.274v115.179c1.844.055 3.69.092 5.542.092z" fill="#474f54"/><g><path d="m.114 221.308v191.031h256l27.294-98.539-27.294-92.492z" fill="#f7fcff"/><path d="m256.114 221.308h256v191.03h-256z" fill="#ecf3fb"/></g></g><g><path d="m297.765 268.319-30.86 81.029 18.096 6.892 7.308-19.188h26.871l7.235 19.171 18.117-6.838-30.601-81.085zm1.919 49.369 6.122-16.074 6.066 16.074z" fill="#d9d6ec"/><g fill="#e0e6f5"><path d="m49.626 267.868h-19.364v85.999h42.718v-19.364h-23.354z"/><path d="m92.469 267.839h19.364v86.056h-19.364z"/><path d="m179.378 305.45c2.161-3.7 3.407-7.997 3.407-12.583 0-13.801-11.227-25.028-25.028-25.028h-29.054v86.1s27.53-.123 32.437-.123c15.237 0 27.633-12.396 27.633-27.633-.001-8.252-3.641-15.666-9.395-20.733zm-31.312-18.247h9.691c3.123 0 5.664 2.541 5.664 5.664s-2.541 5.664-5.664 5.664c-1.457 0-9.691.019-9.691.019zm13.073 47.249c-2.435 0-8.033.02-13.073.039v-16.568c.819-.003 13.073-.009 13.073-.009 4.559 0 8.269 3.71 8.269 8.269.001 4.559-3.709 8.269-8.269 8.269z"/></g><path d="m485.199 274.858-16.228-10.564-18.308 28.125-18.477-28.298-16.213 10.587 25.013 38.309-.099 40.855 19.364.047.099-40.887z" fill="#d9d6ec"/><path d="m256.018 294.854c0-14.895-12.558-27.014-27.994-27.014h-27.426v86.056h19.364v-21.719l22.53 21.655 13.462-13.92-19.957-19.166c11.563-3.322 20.021-13.67 20.021-25.892zm-27.994-7.651c4.679 0 8.631 3.504 8.631 7.651s-3.952 7.651-8.631 7.651c-1.897 0-7.971.026-7.971.026l-.041-15.327h8.012z" fill="#e0e6f5"/><path d="m410.048 294.854c0-14.895-12.558-27.014-27.994-27.014h-27.426v86.056h19.364v-21.719l22.531 21.655 13.462-13.92-19.957-19.166c11.562-3.322 20.02-13.67 20.02-25.892zm-27.994-7.651c4.678 0 8.631 3.504 8.631 7.651s-3.952 7.651-8.631 7.651c-1.897 0-7.971.026-7.971.026l-.041-15.327h8.012z" fill="#d9d6ec"/></g></g></svg>