<svg id="Capa_1" enable-background="new 0 0 512 512" height="512" viewBox="0 0 512 512" width="512" xmlns="http://www.w3.org/2000/svg"><g><g><g><path d="m220.4 245.415c-5.448 0-10.82.327-16.106.943l-5.975 28.558c0 28.557 29.125 61.93 57.681 61.93l13.205-52.769-13.205-38.662z" fill="#fb9"/><path d="m316.119 274.915-8.413-28.558c-5.286-.616-10.658-.943-16.106-.943h-35.6v91.43c.002 0 60.119-14.174 60.119-61.929z" fill="#f5a488"/></g><g><path d="m429.947 383.761c0-46.688-23.25-88.043-58.775-113.109l-20.431 83.519 20.431 68.13h58.775z" fill="#f5a488"/><path d="m82.053 383.761v38.54h58.776l13.427-68.13-13.427-83.519c-35.526 25.066-58.776 66.421-58.776 113.109z" fill="#fb9"/></g><path d="m256 326.621v-.371c-28.557 0-51.706-23.15-51.706-51.706v-28.186c-23.429 2.729-45.089 11.329-63.465 24.294v151.649l115.171 28.431 14.769-75.06z" fill="#f7fcff"/><path d="m307.706 246.357v29.085c0 28.261-22.914 50.809-51.175 50.814-.179 0-.531 0-.531 0v124.476l115.172-28.431v-151.649c-18.376-12.966-40.037-21.566-63.466-24.295z" fill="#ecf3fb"/><g><path d="m256 0c-17.422 0-34.244 5.18-48.648 14.98s-25.398 23.545-31.795 39.75c-2.386 6.045-7.602 10.481-13.951 11.866l-16.951 3.698c-16.57 3.614-31.553 12.879-42.191 26.087-10.637 13.208-16.496 29.822-16.496 46.781v18.893l107.136 32.18v-16.635c0-15.97 12.993-28.963 28.963-28.963h33.933l13.205-77.056z" fill="#ca7a33"/><path d="m409.536 96.381c-10.638-13.208-25.621-22.473-42.19-26.087l-16.952-3.698c-6.349-1.385-11.565-5.821-13.951-11.865-6.397-16.205-17.391-29.95-31.796-39.75-14.404-9.801-31.225-14.981-48.647-14.981v148.636h33.932c15.97 0 28.963 12.993 28.963 28.963v16.635l107.137-32.18v-18.893c0-16.958-5.858-33.572-16.496-46.78z" fill="#b1532b"/></g><g><path d="m211.075 130.298c-21.791 0-39.456 17.665-39.456 39.456v8.918c0 46.602 37.778 84.381 84.381 84.381l14.769-72.291-14.769-60.464z" fill="#ffd9b3"/></g><path d="m300.925 130.298h-44.925v132.755c46.602 0 84.381-37.779 84.381-84.381v-8.918c0-21.791-17.665-39.456-39.456-39.456z" fill="#fb9"/></g><g><g><path d="m211 396.683h-211c6.939 7.383 11.38 17.314 11.38 28.245 0 11.025-4.333 21.058-11.38 28.458l6.137 2.984h185.689l1.71 41.741h74.694l-12.23-56.428c0-24.853-20.147-45-45-45z" fill="#fff7e7"/><path d="m301 396.683h211c-6.939 7.383-11.38 17.314-11.38 28.245 0 11.025 4.333 21.058 11.38 28.458l-6.137 2.984h-185.689l-1.71 41.741h-62.464v-56.428c0-24.853 20.147-45 45-45z" fill="#ffe6ce"/><path d="m213.124 482v-28.614h-213.124v30h183.124v28.614h72.876l13.406-13.889-13.406-16.111z" fill="#89ce6d"/><path d="m298.236 453.386v28.614h-42.236v30h72.236v-28.614h183.764v-30z" fill="#5eb16a"/></g></g><g><path d="m241.035 56.616v29.929h14.965l7.482-14.965-7.482-14.964z" fill="#b1532b"/><path d="m256 56.616h14.965v29.93h-14.965z" fill="#983424"/></g></g></svg>