<svg id="Capa_1" enable-background="new 0 0 512 512" height="512" viewBox="0 0 512 512" width="512" xmlns="http://www.w3.org/2000/svg"><g><g><path d="m75.362 370.772v-308.799h-75.362v383.207h55.261l108.989 66.82v-66.82h74.101l17.649-36.682-17.649-36.682z" fill="#fdd752"/><path d="m350.04 372.531-111.689-.715v73.364h111.689z" fill="#f8bd3f"/></g><g><path d="m59.641 0v383.207h226.179l42.347-199.36-42.347-183.847z" fill="#89ce6d"/><path d="m285.82 0v383.207h46.734v116.102l113.16-116.102h66.286v-383.207z" fill="#5eb16a"/></g><g><g><path d="m285.82 294.58-180.995-32.363v-203.157h133.313c26.334 0 47.683 21.348 47.683 47.683l19.974 141.568z" fill="#f7fcff"/><path d="m285.82 299.01 180.995-36.793v-203.157h-133.312c-26.334 0-47.683 21.348-47.683 47.683z" fill="#ecf3fb"/></g><g><path d="m148.297 183.847h92.738v30h-92.738z" fill="#ecf3fb"/></g><g><path d="m148.297 124.355h92.738v30h-92.738z" fill="#ecf3fb"/></g><g><path d="m328.167 124.355h96.302v30h-96.302z" fill="#e0e6f5"/></g><g><path d="m328.167 183.044h96.302v30h-96.302z" fill="#e0e6f5"/></g><g><path d="m285.82 320.284h-180.995v-58.067h148.402c18.001 0 32.593 14.592 32.593 32.593l9.057 15.076z" fill="#fd465f"/><path d="m285.82 320.284h180.995v-58.067h-148.402c-18 0-32.593 14.592-32.593 32.593z" fill="#ce0c51"/></g></g></g></svg>