<svg id="Capa_1" enable-background="new 0 0 512 512" height="512" viewBox="0 0 512 512" width="512" xmlns="http://www.w3.org/2000/svg"><g><g><path d="m228.98 30.987c-41.25-41.25-108.367-41.25-149.617 0-41.249 41.25-41.249 108.367 0 149.616l68.581 68.581 108.056-.474 22.082-93.431-22.082-97.272z" fill="#fd465f"/><path d="m432.636 30.987c-19.982-19.982-46.549-30.987-74.808-30.987s-54.826 11.005-74.809 30.987l-27.019 27.02v190.703l109.008-.478 67.629-67.629c41.249-41.249 41.249-108.367-.001-149.616z" fill="#ce0c51"/></g><g><g><path d="m249.271 122.481c-59.325 0-107.59 48.265-107.59 107.589v86.751h32.845v55.71h30v-24.003h36.474v24.003h15l11.786-151.475-11.786-98.575z" fill="#f7fcff"/><path d="m262.729 122.481h-6.729v250.05h15v-24.003h36.81v24.003h30v-55.71h32.509v-86.751c-.001-59.324-48.265-107.589-107.59-107.589z" fill="#ecf3fb"/></g><g><g><path d="m210.808 224.366h30.096v30.165h-30.096z" fill="#585f64"/></g><g><path d="m271.096 224.366h30.096v30.165h-30.096z" fill="#474f54"/></g></g></g><g><path d="m211 396.683h-211c6.939 7.383 11.38 17.314 11.38 28.245 0 11.025-4.333 21.058-11.38 28.458l6.137 2.984h185.689l1.71 41.741h74.694l-12.23-56.428c0-24.853-20.147-45-45-45z" fill="#fff7e7"/><path d="m301 396.683h211c-6.939 7.383-11.38 17.314-11.38 28.245 0 11.025 4.333 21.058 11.38 28.458l-6.137 2.984h-185.689l-1.71 41.741h-62.464v-56.428c0-24.853 20.147-45 45-45z" fill="#ffe6ce"/><path d="m213.124 482v-28.614h-213.124v30h183.124v28.614h72.876l13.406-13.889-13.406-16.111z" fill="#f8bd3f"/><path d="m298.236 453.386v28.614h-42.236v30h72.236v-28.614h183.764v-30z" fill="#fd9326"/></g><g><path d="m240.904 254.531v30.34h15.096l5.235-15.17-5.235-15.17z" fill="#e0e6f5"/><path d="m256 254.531h15.096v30.34h-15.096z" fill="#d9d6ec"/></g></g></svg>