<svg id="Capa_1" enable-background="new 0 0 512 512" height="512" viewBox="0 0 512 512" width="512" xmlns="http://www.w3.org/2000/svg"><g><g><g><path d="m257.908 411.735h-57.865l-9.38 25.011c-10.15 27.068-36.393 45.254-65.302 45.254h-1.277v30h133.825v-100.265z" fill="#474f54"/><path d="m256 371.025h-256v-72.152l10.701-10.997-10.701-19.003v-268.873h256l27.738 234.071z" fill="#f7fcff"/><path d="m512 0h-256v371.025h256v-72.152l-11.677-15 11.677-15z" fill="#ecf3fb"/><path d="m387.917 482c-28.908 0-55.151-18.186-65.303-45.253l-9.38-25.011h-57.234v100.264h131.917z" fill="#31383e"/><path d="m257.646 439.317h-257.646v-72.681h257.646l16.884 38.032z" fill="#585f64"/><path d="m256 366.637h256v72.681h-256z" fill="#474f54"/></g></g><path d="m235.341 192.717-5.153-91.375h-25.917v128.708l28.965 24.477z" fill="#89ce6d"/><path d="m287.175 192.717-5.153-91.375h-26.022v128.708l29.07 27.021z" fill="#fdd752"/><path d="m339.009 192.717-5.153-91.375h-25.917v128.708l28.965 27.021z" fill="#fdd752"/><g><path d="m204.271 230.05v41.95l25.078 12.484.839-.392 5.153-30.633-5.153-23.409z" fill="#5eb16a"/></g><g><path d="m256 101.342h-25.812v142.214l25.812-13.506z" fill="#5eb16a"/><path d="m230.188 230.05v54.042l25.812-12.092v-41.95z" fill="#009b5c"/></g><g><path d="m256 230.05v41.95l25.183 12.484.839-.392 7.163-32.8-7.163-21.242z" fill="#f8bd3f"/></g><g><path d="m307.939 101.342h-25.917v142.214l25.917-13.506z" fill="#f8bd3f"/><path d="m282.022 230.05v54.042l25.917-12.092v-41.95z" fill="#fd9326"/></g><g><path d="m307.939 230.05v41.95l25.078 12.484.839-.392 2-35.464-2-18.578z" fill="#f8bd3f"/></g><g><path d="m359.773 101.342h-25.917v145.517l25.917-16.809z" fill="#f8bd3f"/><path d="m333.856 230.05v54.042l25.917-12.092v-41.95z" fill="#fd9326"/></g><g><path d="m113.18 55.829v213.069l44.07 15.586 1.476-.489 9.055-114.083-9.055-114.083z" fill="#fd465f"/></g><path d="m204.271 55.829h-45.545v228.166l45.545-15.097z" fill="#ce0c51"/><g><g><path d="m401.834 55.784h30v239.975h-30z" fill="#21c8c7" transform="matrix(.881 -.473 .473 .881 -33.541 218.295)"/></g></g><g><path d="m0 268.873v30h256.07l12.161-14.389-12.231-15.611z" fill="#b1532b"/></g><path d="m512 268.873h-256l.07 30h255.93z" fill="#983424"/></g></svg>