<svg id="Capa_1" enable-background="new 0 0 512 512" height="512" viewBox="0 0 512 512" width="512" xmlns="http://www.w3.org/2000/svg"><g><g><g><path d="m211 396.683h-211c6.939 7.383 11.38 17.314 11.38 28.245 0 11.025-4.333 21.058-11.38 28.458l6.137 2.984h185.689l1.71 41.741h74.694l-12.23-56.428c0-24.853-20.147-45-45-45z" fill="#f7fcff"/><path d="m301 396.683h211c-6.939 7.383-11.38 17.314-11.38 28.245 0 11.025 4.333 21.058 11.38 28.458l-6.137 2.984h-185.689l-1.71 41.741h-62.464v-56.428c0-24.853 20.147-45 45-45z" fill="#ecf3fb"/><path d="m213.124 482v-28.614h-213.124v30h183.124v28.614h72.876l13.406-13.889-13.406-16.111z" fill="#6ae1db"/><path d="m298.236 453.386v28.614h-42.236v30h72.236v-28.614h183.764v-30z" fill="#21c8c7"/></g></g><g><path d="m254.798 72.689c-22.546.314-43.674 9.46-59.493 25.753-15.813 16.288-24.339 37.675-24.006 60.221.338 22.87 9.641 44.174 26.196 59.987 7.175 6.854 11.29 16.721 11.29 27.07v31.578h47.215l15-101.527-15-103.07c-.401 0-.8-.018-1.202-.012z" fill="#fdd752"/><path d="m315.478 97.074c-15.981-15.76-37.1-24.365-59.478-24.372v204.597h47.214v-31.9c0-10.179 4.059-19.875 11.136-26.601 16.999-16.156 26.36-37.965 26.36-61.407 0-22.851-8.961-44.272-25.232-60.317z" fill="#f8bd3f"/></g><g><path d="m208.785 274.989v36.658h47.215l13.406-18.329-13.406-18.329z" fill="#585f64"/></g><path d="m256 274.989h47.214v36.658h-47.214z" fill="#474f54"/><path d="m148.809 24.56h29.93v29.93h-29.93z" fill="#feeba8" transform="matrix(.707 -.707 .707 .707 20.02 127.381)"/><path d="m333.262 24.56h29.93v29.93h-29.93z" fill="#fddb63" transform="matrix(.707 -.707 .707 .707 74.045 257.809)"/><g><path d="m241.035 0v29.93h14.965l7.482-14.965-7.482-14.965z" fill="#feeba8"/><path d="m256 0h14.965v29.93h-14.965z" fill="#fddb63"/></g></g></svg>