<svg id="Capa_1" enable-background="new 0 0 512 512" height="512" viewBox="0 0 512 512" width="512" xmlns="http://www.w3.org/2000/svg"><g><g><path d="m199.757 259.646-45.264 146.739 101.507 49.769 21.752-123.176-21.752-65.821z" fill="#fdd752"/></g><path d="m312.166 259.325-56.166 7.832v188.997l101.502-49.789z" fill="#f8bd3f"/><g><g><path d="m97.264 322.633h-42.851v-30h25.136l30.88-55.994 26.269 14.488z" fill="#21c8c7"/></g><g><path d="m457.246 322.633h-43.85l-39.328-71.313 26.27-14.488 30.773 55.801h26.135z" fill="#17a0a9"/></g></g><g><path d="m211 396.683h-211c6.939 7.383 11.38 17.314 11.38 28.245 0 11.025-4.333 21.058-11.38 28.458l6.137 2.984h185.689l1.71 41.741h74.694l-12.23-56.428c0-24.853-20.147-45-45-45z" fill="#fff7e7"/><path d="m301 396.683h211c-6.939 7.383-11.38 17.314-11.38 28.245 0 11.025 4.333 21.058 11.38 28.458l-6.137 2.984h-185.689l-1.71 41.741h-62.464v-56.428c0-24.853 20.147-45 45-45z" fill="#ffe6ce"/><path d="m213.124 482v-28.614h-213.124v30h183.124v28.614h72.876l13.406-13.889-13.406-16.111z" fill="#fd465f"/><path d="m298.236 453.386v28.614h-42.236v30h72.236v-28.614h183.764v-30z" fill="#ce0c51"/></g><g><path d="m151.982 148.024-105.979 75.624 209.997 22.798 21.752-63.32-21.752-48.974z" fill="#474f54"/><path d="m359.768 148.024-103.768-13.872v89.496h209.278z" fill="#31383e"/></g><g><path d="m241 0v44.122h15l7.5-22.061-7.5-22.061z" fill="#21c8c7"/><path d="m256 0h15v44.122h-15z" fill="#17a0a9"/></g><g><path d="m255.875 29.122c-57.286 0-103.893 46.606-103.893 103.893v15.009h104.018l29.018-59.45-29.018-59.45c-.042 0-.083-.002-.125-.002z" fill="#f7fcff"/><path d="m359.768 133.015c0-57.244-46.539-103.823-103.768-103.891v118.9h103.768z" fill="#e0e6f5"/></g><g><path d="m46.003 223.648 20.507 12.035c3.647 1.967 90.454 48.17 189.143 48.17.116 0 .232-.002.348-.002l15-30.1-15-30.103z" fill="#585f64"/><path d="m465.278 223.648h-209.278v60.203c98.544-.109 185.152-46.203 188.795-48.167z" fill="#474f54"/></g></g></svg>