<svg id="Capa_1" enable-background="new 0 0 512 512" height="512" viewBox="0 0 512 512" width="512" xmlns="http://www.w3.org/2000/svg"><g><g><path d="m482.988.164c-76.592-2.709-151.575 28.24-205.759 82.423l-102.974 102.975c-27.797 27.797-49.458 62.065-62.641 99.1s-18.047 77.282-14.066 116.391l1.238 12.162 211.28-157.132 201.77-255.919z" fill="#fdd752"/><path d="m511.836.164-413.05 413.05 12.162 1.238c8.863.902 17.778 1.35 26.708 1.35 30.472 0 61.041-5.22 89.683-15.416 37.035-13.183 71.303-34.844 99.1-62.641l102.975-102.974c54.184-54.184 85.131-129.18 82.423-205.759v-28.848z" fill="#f8bd3f"/></g><g><g><path d="m59.208 452.793c-19.19-19.19-31.272-44.628-34.02-71.627l29.836-3.037c2.051 20.151 11.068 39.135 25.39 53.458z" fill="#f8bd3f"/></g></g><g><path d="m214.551 284.05c-3.981-39.109.883-79.356 14.066-116.391 9.786-27.493 23.153-54.005 40.758-77.217l-57.629 57.629c-17.605 23.212-30.971 49.724-40.757 77.216-13.183 37.035-18.047 77.282-14.066 116.391l1.238 12.162 46.165-24.877 11.463-32.751z" fill="#f8bd3f"/><path d="m254.658 298.8c-8.929 0-17.845-.448-26.708-1.35l-12.162-1.238-57.628 57.628 12.162 1.238c8.863.902 17.778 1.35 26.708 1.35 30.472 0 61.041-5.22 89.683-15.416 33.094-11.78 63.39-31.504 90.538-54.079l52.162-52.162c.119-.119.233-.242.351-.361-25.084 21.24-54.753 38.056-85.423 48.973-28.642 10.196-59.211 15.417-89.683 15.417z" fill="#fd9326"/></g><g><g><path d="m360.019 130.693-360.019 360.019 10.644 10.644 166.566-151.796 193.453-208.223z" fill="#ecf3fb"/><path d="m-58.596 319.142h509.144v15.053h-509.144z" fill="#e0e6f5" transform="matrix(.707 -.707 .707 .707 -173.59 234.255)"/></g></g></g></svg>