<svg id="Capa_1" enable-background="new 0 0 512 512" height="512" viewBox="0 0 512 512" width="512" xmlns="http://www.w3.org/2000/svg"><g><g><g><path d="m211 396.683h-211c6.939 7.383 11.38 17.314 11.38 28.245 0 11.025-4.333 21.058-11.38 28.458l6.137 2.984h185.689l1.71 41.741h74.694l-12.23-56.428c0-24.853-20.147-45-45-45z" fill="#f7fcff"/></g><g><path d="m301 396.683h211c-6.939 7.383-11.38 17.314-11.38 28.245 0 11.025 4.333 21.058 11.38 28.458l-6.137 2.984h-185.689l-1.71 41.741h-62.464v-56.428c0-24.853 20.147-45 45-45z" fill="#ecf3fb"/></g><g><path d="m213.124 482v-28.614h-213.124v30h183.124v28.614h72.876l13.406-13.889-13.406-16.111z" fill="#6ae1db"/><path d="m298.236 453.386v28.614h-42.236v30h72.236v-28.614h183.764v-30z" fill="#21c8c7"/></g></g><g><g><path d="m89.7 324.197 10.429 10.429 103.755-92.421 72.385-83.72-17.825-3.032z" fill="#474f54"/><path d="m110.913 345.41 168.744-168.744-3.066-18.126-.322-.055-176.14 176.141z" fill="#31383e"/></g><g><path d="m310.323 103.573-51.879 51.88 10.429 10.429 31.378-20.206 20.501-31.674z" fill="#585f64"/></g><path d="m263.52 137.709h73.369v15.251h-73.369z" fill="#474f54" transform="matrix(.707 -.707 .707 .707 -14.839 254.843)"/><path d="m418.017 16.737-55.311 7.239-50.366-23.976-10.208 54.84-38.367 40.493 49.002 26.654 50.531-27.685 54.719-77.564z" fill="#fdd752"/><path d="m418.017 16.738-105.25 105.249 26.655 49.002 40.492-38.366 54.841-10.208-23.976-50.367z" fill="#f8bd3f"/></g><g fill="#feeba8"><path d="m454.907 179.436h28.535v28.512h-28.535z" transform="matrix(-1 0 0 -1 938.349 387.384)"/><path d="m483.442 207.948h28.558v28.512h-28.558z" transform="matrix(-1 0 0 -1 995.442 444.408)"/><path d="m426.395 207.948h28.512v28.512h-28.512z" transform="matrix(-1 0 0 -1 881.302 444.408)"/><path d="m454.907 236.46h28.535v28.512h-28.535z" transform="matrix(-1 0 0 -1 938.349 501.431)"/><path d="m394.909 278.719h28.535v28.512h-28.535z" transform="matrix(-1 0 0 -1 818.353 585.949)"/></g></g></svg>