<svg id="Capa_1" enable-background="new 0 0 512 512" height="512" viewBox="0 0 512 512" width="512" xmlns="http://www.w3.org/2000/svg"><g><path d="m256 395.974-256-32.363v-318.165h208.317c26.334 0 47.683 21.348 47.683 47.683l19.974 166.569z" fill="#fff7e7"/><path d="m256 400.404 256-36.793v-318.165h-208.317c-26.335 0-47.683 21.348-47.683 47.683z" fill="#ffe6ce"/><g><g><g><g><path d="m58.383 229.698h137.107v30h-137.107z" fill="#ffe6ce"/></g><g><path d="m318.95 171.009h137.106v30h-137.106z" fill="#fccab4"/></g><g><path d="m318.95 111.517h137.106v30h-137.106z" fill="#fccab4"/></g><g><path d="m318.95 229.698h137.106v30h-137.106z" fill="#fccab4"/></g></g></g><g><path d="m195.63 200.644h-137.206v-89.028h137.206z" fill="#ffe6ce"/></g></g><g><path d="m256 421.677h-256v-58.067h223.407c18 0 32.593 14.592 32.593 32.593l9.057 15.076z" fill="#585f64"/><path d="m256 421.677h256v-58.067h-60.2l-15 10.513-15-10.513h-133.207c-18 0-32.593 14.592-32.593 32.593z" fill="#474f54"/></g><path d="m112.669 295.132h28.535v28.512h-28.535z" fill="#ffe6ce" transform="matrix(-1 0 0 -1 253.874 618.776)"/><path d="m374.725 295.132h28.535v28.512h-28.535z" fill="#fccab4" transform="matrix(-1 0 0 -1 777.986 618.776)"/><g><path d="m451.8 363.61h-30v58.067l15 7.769 15-7.769z" fill="#fdd752"/></g><path d="m421.8 421.677h30v44.877h-30z" fill="#f8bd3f"/></g></svg>