<svg id="Capa_1" enable-background="new 0 0 512.006 512.006" height="512" viewBox="0 0 512.006 512.006" width="512" xmlns="http://www.w3.org/2000/svg"><g><g><g><path d="m151.452 10.502-10.711 10.711 28.568 28.568 10.711-10.71-13.878-19.536z" fill="#21c8c7"/><path d="m163.561-.665h14.853v40.401h-14.853z" fill="#17a0a9" transform="matrix(.707 -.707 .707 .707 36.268 126.629)"/></g><g><g><path d="m72.466 142.052h128.197v30h-128.197z" fill="#17a0a9" transform="matrix(.721 -.693 .693 .721 -70.716 138.348)"/></g><g><path d="m55.961 283.506v127.779h15l9.116-55.815-9.116-71.964z" fill="#21c8c7"/><path d="m70.961 283.506h15v127.779h-15z" fill="#17a0a9"/></g><g><path d="m13.828 238.797c0 31.554 25.608 57.235 57.133 57.364l20.201-53.625-20.201-61.104c-31.525.13-57.133 25.811-57.133 57.365z" fill="#6ae1db"/><path d="m71.199 181.426c-.08 0-.158.006-.238.006v114.729c.08 0 .158.006.238.006 31.634 0 57.37-25.736 57.37-57.37s-25.736-57.371-57.37-57.371z" fill="#21c8c7"/></g><g><g><path d="m211.003 396.688h-211c6.939 7.383 11.38 17.314 11.38 28.245 0 11.025-4.333 21.058-11.38 28.458l6.137 2.984h185.689l1.71 41.741h74.694l-12.231-56.428c.001-24.853-20.146-45-44.999-45z" fill="#f7fcff"/></g><g><path d="m301.003 396.688h211c-6.939 7.383-11.38 17.314-11.38 28.245 0 11.025 4.333 21.058 11.38 28.458l-6.137 2.984h-185.689l-1.71 41.741h-62.464v-56.428c0-24.853 20.147-45 45-45z" fill="#ecf3fb"/></g><g><path d="m213.126 482.006v-28.614h-213.123v30h183.123v28.614h72.877l13.406-13.89-13.406-16.11z" fill="#b1532b"/><path d="m298.239 453.392v28.614h-42.236v30h72.236v-28.614h183.764v-30z" fill="#983424"/></g></g><g><path d="m329.424 142.963-58.406 84.539c13.147 13.148 30.461 19.703 47.885 19.702 17.511-.001 35.123-6.641 48.723-19.85z" fill="#fdd752"/><path d="m368.38 226.636c13.073-13.073 20.388-30.365 20.596-48.689.21-18.454-6.798-35.74-19.731-48.673l-55.222 23.397-7.693 13.386 61.296 61.296c.249-.242.507-.47.754-.717z" fill="#f8bd3f"/></g></g><path d="m239.728 79.938-68.595-49.754c-30.575 31.461-30.322 81.919.801 113.042l41.183 41.182 93.52-55.938z" fill="#6ae1db"/><path d="m285.819 29.34c-31.398-31.397-82.489-31.399-113.885.001-.276.276-.53.564-.801.843l98.286 98.286 57.952-57.577z" fill="#21c8c7"/></g><g><path d="m188.739 160.03 39.306 125.969 99.099-99.099-32.885-51.99-48.981-30.594z" fill="#21c8c7"/></g><path d="m303.466 46.987-58.188 57.329 81.866 82.584 99.599-99.6z" fill="#17a0a9"/></g></svg>